Patient4_TMGait_0pt7_01_right_32_GRF.mot
version=1
nRows=65
nColumns=19
inDegrees=no
endheader
time	F1x	F1y	F1z	M1x	M1y	M1z	F2x	F2y	F2z	M2x	M2y	M2z	EC1x	EC1y	EC1z	EC2x	EC2y	EC2z
36.37	17.8705	826.8958	81.7136	-294.896	-89.2484	906.4215	-4.1478	-22.223	-24.2006	2.6994	12.9338	-22.2392	-0.0592	0.0182	-0.0073	-0.0462	0.0165	0.9585
36.3818	13.9568	817.6496	84.9476	-291.7486	-91.1425	890.3904	-2.8221	-12.8218	-16.2405	2.5498	8.7454	-12.4074	-0.0592	0.0182	-0.0073	-0.0462	0.0165	0.9585
36.3936	11.022	804.9589	87.4405	-287.2226	-92.1703	870.7879	-1.7384	-4.8263	-9.4871	2.4286	5.2277	-4.0462	-0.0592	0.0182	-0.0073	-0.0462	0.0165	0.9585
36.4054	9.1657	789.1471	88.9536	-281.4312	-92.2041	848.2674	-0.95647	1.3099	-4.3381	2.3508	2.5767	2.3767	-0.0592	0.0182	-0.0073	-0.0462	0.0165	0.9585
36.4171	8.2307	771.0219	89.4424	-274.7009	-91.278	823.788	-0.4516	5.6025	-0.78072	2.3166	0.77401	6.872	-0.0592	0.0182	-0.0073	-0.0462	0.0165	0.9585
36.4289	7.9868	751.6976	89.026	-267.4858	-89.555	798.5088	-0.18554	8.2983	1.4202	2.3124	-0.31052	9.6967	-0.0592	0.0182	-0.0073	-0.0462	0.0165	0.9585
36.4407	8.1601	732.4303	87.8904	-260.291	-87.2543	773.6471	-0.081563	9.7271	2.5789	2.3154	-0.85059	11.184	-0.0592	0.0182	-0.0073	-0.0462	0.0165	0.9585
36.4525	8.5531	714.3648	86.2763	-253.5732	-84.6209	750.2742	-0.097381	10.1848	3.0148	2.29	-1.0157	11.6441	-0.0592	0.0182	-0.0073	-0.0462	0.0165	0.9585
36.4643	9.0694	698.485	84.3915	-247.7094	-81.8402	729.2951	-0.17209	9.879	2.9956	2.1882	-0.9491	11.2668	-0.0592	0.0182	-0.0073	-0.0462	0.0165	0.9585
36.4761	9.7218	685.5297	82.4078	-242.975	-79.0331	711.3585	-0.27729	8.9286	2.7399	1.956	-0.77224	10.1409	-0.0592	0.0182	-0.0073	-0.0462	0.0165	0.9585
36.4879	10.6191	676.0106	80.4017	-239.5527	-76.2029	696.8978	-0.36081	7.338	2.3881	1.5275	-0.56917	8.2282	-0.0592	0.0182	-0.0073	-0.0462	0.0165	0.9585
36.4996	11.9326	670.1665	78.401	-237.5158	-73.296	686.0826	-0.38416	5.0564	2.0459	0.84089	-0.41403	5.4504	-0.0592	0.0182	-0.0073	-0.0462	0.0165	0.9585
36.5114	13.7771	667.8791	76.413	-236.8022	-70.2572	678.7489	-0.28364	2.009	1.7687	-0.15322	-0.3576	1.6994	-0.0592	0.0182	-0.0073	-0.0462	0.0165	0.9585
36.5232	16.2381	668.6579	74.479	-237.2089	-67.0759	674.3656	-0.011804	-1.7802	1.5913	-1.4542	-0.44416	-3.0019	-0.0592	0.0182	-0.0073	-0.0462	0.0165	0.9585
36.535	19.3644	671.6748	72.6773	-238.4075	-63.7883	672.084	0.49251	-6.1252	1.5268	-2.9894	-0.71163	-8.4341	-0.0592	0.0182	-0.0073	-0.0462	0.0165	0.9585
36.5468	23.214	675.8682	71.0982	-239.9841	-60.44	670.8311	1.2591	-10.4767	1.5815	-4.5482	-1.1869	-13.9081	-0.0592	0.0182	-0.0073	-0.0462	0.0165	0.9585
36.5586	27.852	680.0707	69.8184	-241.4901	-57.0628	669.4682	2.2997	-13.82	1.7513	-5.7429	-1.8776	-18.1586	-0.0592	0.0182	-0.0073	-0.0462	0.0165	0.9585
36.5704	33.2948	683.1813	68.8782	-242.5046	-53.6766	666.9409	3.5604	-14.4761	2.0313	-5.9421	-2.7595	-19.0849	-0.0592	0.0182	-0.0073	-0.0462	0.0165	0.9585
36.5821	39.4825	684.2994	68.3218	-242.6856	-50.3404	662.4144	4.9053	-10.0152	2.3992	-4.2367	-3.7507	-13.6608	-0.0592	0.0182	-0.0073	-0.0462	0.0165	0.9585
36.5939	46.2815	682.7809	68.149	-241.8005	-47.1063	655.3516	6.0292	2.7836	2.8114	0.56649	-4.6741	2.1561	-0.0592	0.0182	-0.0073	-0.0462	0.0165	0.9585
36.6057	53.4712	678.187	68.3037	-239.7123	-44.0172	645.4493	6.4555	27.7489	3.1877	9.8752	-5.226	33.1795	-0.0592	0.0182	-0.0073	-0.0462	0.0165	0.9585
36.6175	60.7471	670.1081	68.6023	-236.3152	-41.0323	632.463	5.447	68.8085	3.3896	25.1234	-4.9307	84.3694	-0.0592	0.0182	-0.0073	-0.0462	0.0165	0.9585
36.6293	67.7393	657.8909	68.7349	-231.4345	-38.0251	615.9534	2.0385	129.0481	3.2143	47.4226	-3.1471	159.6562	-0.0592	0.0182	-0.0073	-0.0462	0.0165	0.9585
36.6411	73.9655	640.4723	68.3007	-224.7606	-34.8235	595.1183	-4.9486	209.1577	2.3828	76.9849	0.93257	260.0144	-0.0592	0.0182	-0.0073	-0.0462	0.0165	0.9585
36.6529	78.8758	616.4123	66.8847	-215.8475	-31.2685	568.8032	-16.733	305.3367	0.53864	112.3505	8.2052	380.8134	-0.0592	0.0182	-0.0073	-0.0462	0.0165	0.9585
36.6646	81.8648	584.1848	64.103	-204.2063	-27.2498	535.7606	-33.7201	407.5803	-2.7702	149.7484	19.3367	509.6588	-0.0592	0.0182	-0.0073	-0.0462	0.0165	0.9585
36.6764	82.3358	542.6946	59.7633	-189.4778	-22.8346	495.0879	-53.4262	500.7274	-8.6062	183.5418	34.5214	627.4975	-0.0592	0.0182	-0.0073	-0.0462	0.0165	0.9585
36.6882	79.8508	491.906	53.9405	-171.6434	-18.2733	446.7767	-72.1018	574.348	-17.4472	209.8655	52.746	720.8946	-0.0592	0.0182	-0.0073	-0.0462	0.0165	0.9585
36.7	74.2751	433.3155	46.966	-151.1739	-13.9147	392.1834	-88.074	628.4681	-27.5355	228.7579	71.347	789.5584	-0.0592	0.0182	-0.0073	-0.0462	0.0165	0.9585
36.7118	65.9674	369.4473	39.3966	-128.8988	-10.1209	333.498	-100.096	668.3038	-37.7337	242.2338	88.4193	839.7906	-0.0592	0.0182	-0.0073	-0.0462	0.0165	0.9585
36.7236	55.6154	303.6173	31.7222	-105.9332	-7.0608	273.6173	-108.192	699.3717	-46.1933	252.466	101.8316	878.5072	-0.0592	0.0182	-0.0073	-0.0462	0.0165	0.9585
36.7354	44.2159	239.4199	24.3627	-83.5207	-4.7401	215.601	-112.6906	724.8317	-52.4918	260.7172	111.1243	909.6701	-0.0592	0.0182	-0.0073	-0.0462	0.0165	0.9585
36.7471	32.8376	180.2176	17.6582	-62.8392	-3.0477	162.3282	-114.2071	746.3558	-56.4942	267.6274	116.4221	935.4343	-0.0592	0.0182	-0.0073	-0.0462	0.0165	0.9585
36.7589	22.5241	128.5328	11.905	-44.7824	-1.8434	115.8917	-113.179	764.3561	-59.06	273.3224	118.9175	956.3798	-0.0592	0.0182	-0.0073	-0.0462	0.0165	0.9585
36.7707	13.8879	85.8036	7.2984	-29.8612	-1.0479	77.5431	-110.2153	778.7666	-60.9065	277.7245	119.7424	972.5196	-0.0592	0.0182	-0.0073	-0.0462	0.0165	0.9585
36.7825	7.2228	52.3543	3.8844	-18.2018	-0.58129	47.507	-105.9129	789.0333	-62.6417	280.6035	119.8825	983.2546	-0.0592	0.0182	-0.0073	-0.0462	0.0165	0.9585
36.7943	2.5126	27.8163	1.572	-9.6664	-0.35707	25.49	-100.9883	794.8718	-64.5018	281.8633	119.8872	988.3597	-0.0592	0.0182	-0.0073	-0.0462	0.0165	0.9585
36.8061	-0.35284	11.1563	0.15499	-3.8939	-0.23634	10.5357	-95.8619	796.5925	-66.1979	281.6528	119.6296	988.1991	-0.0592	0.0182	-0.0073	-0.0462	0.0165	0.9585
36.8179	-1.8381	1.0671	-0.57932	-0.41134	-0.19263	1.4949	-90.866	794.6451	-67.6369	280.1743	119.0909	983.3301	-0.0592	0.0182	-0.0073	-0.0462	0.0165	0.9585
36.8296	-2.3215	-4.097	-0.84248	1.3567	-0.18709	-3.149	-86.1312	789.3366	-68.4845	277.5871	117.9593	974.0692	-0.0592	0.0182	-0.0073	-0.0462	0.0165	0.9585
36.8414	-2.2453	-5.8778	-0.82638	1.9563	-0.2031	-4.7289	-81.705	781.0707	-68.8413	274.0508	116.3351	960.8703	-0.0592	0.0182	-0.0073	-0.0462	0.0165	0.9585
36.8532	-1.836	-5.5874	-0.66278	1.8471	-0.21468	-4.4769	-77.5929	770.3536	-68.6482	269.7695	114.1767	944.2974	-0.0592	0.0182	-0.0073	-0.0462	0.0165	0.9585
36.865	-1.3495	-4.2109	-0.45616	1.3754	-0.21949	-3.2211	-73.7265	758.0036	-68.1809	265.0297	111.7618	925.309	-0.0592	0.0182	-0.0073	-0.0462	0.0165	0.9585
36.8768	-0.84087	-2.462	-0.24908	0.78044	-0.21203	-1.6592	-70.0645	745.093	-67.4496	260.2191	109.121	905.118	-0.0592	0.0182	-0.0073	-0.0462	0.0165	0.9585
36.8886	-0.44805	-0.74219	-0.081964	0.19921	-0.19977	-0.080406	-66.583	732.8689	-66.5954	255.7793	106.3983	885.1655	-0.0592	0.0182	-0.0073	-0.0462	0.0165	0.9585
36.9004	-0.11017	0.68708	0.054922	-0.28605	-0.18125	1.2299	-63.197	722.7233	-65.5244	252.1989	103.4851	867.0478	-0.0592	0.0182	-0.0073	-0.0462	0.0165	0.9585
36.9121	0.092808	1.7962	0.14348	-0.66229	-0.1615	2.2908	-59.8569	715.7596	-64.2521	249.8609	100.3664	852.011	-0.0592	0.0182	-0.0073	-0.0462	0.0165	0.9585
36.9239	0.25396	2.5564	0.21267	-0.92401	-0.14765	3.0164	-56.4813	712.8373	-62.7417	249.0471	96.973	841.0217	-0.0592	0.0182	-0.0073	-0.0462	0.0165	0.9585
36.9357	0.3133	3.0644	0.24265	-1.0988	-0.13797	3.5328	-52.9929	714.3867	-61.0738	249.8723	93.3565	834.5689	-0.0592	0.0182	-0.0073	-0.0462	0.0165	0.9585
36.9475	0.35121	3.357	0.27177	-1.202	-0.1474	3.7967	-49.4551	720.406	-59.3509	252.2863	89.6344	832.6906	-0.0592	0.0182	-0.0073	-0.0462	0.0165	0.9585
36.9593	0.3142	3.5221	0.27712	-1.2613	-0.16321	3.9457	-45.9011	730.4614	-57.6534	256.0732	85.9042	834.9542	-0.0592	0.0182	-0.0073	-0.0462	0.0165	0.9585
36.9711	0.29176	3.5761	0.294	-1.2877	-0.19135	3.9588	-42.4403	743.5292	-56.1004	260.8094	82.3218	840.3528	-0.0592	0.0182	-0.0073	-0.0462	0.0165	0.9585
36.9829	0.22241	3.5973	0.29793	-1.3025	-0.21932	3.972	-39.0816	758.0365	-54.7432	265.8864	78.9527	847.2661	-0.0592	0.0182	-0.0073	-0.0462	0.0165	0.9585
36.9946	0.19029	3.5748	0.30918	-1.3052	-0.24402	3.9319	-35.785	772.0717	-53.7195	270.5863	75.9217	853.7255	-0.0592	0.0182	-0.0073	-0.0462	0.0165	0.9585
37.0064	0.12411	3.5721	0.31053	-1.3112	-0.26559	3.9342	-32.4112	783.676	-53.052	274.2054	73.2166	857.6969	-0.0592	0.0182	-0.0073	-0.0462	0.0165	0.9585
37.0182	0.077271	3.5491	0.32042	-1.3098	-0.28744	3.8862	-28.8219	791.2754	-52.8171	276.1939	70.8674	857.5675	-0.0592	0.0182	-0.0073	-0.0462	0.0165	0.9585
37.03	-0.014631	3.5097	0.33239	-1.2975	-0.32016	3.8305	-24.8552	793.9246	-52.9728	276.2508	68.7872	852.3799	-0.0592	0.0182	-0.0073	-0.0462	0.0165	0.9585
37.0418	-0.10523	3.3838	0.35526	-1.2527	-0.36731	3.6514	-20.453	791.3956	-53.5037	274.3444	66.9464	841.9614	-0.0592	0.0182	-0.0073	-0.0462	0.0165	0.9585
37.0536	-0.25058	3.111	0.38572	-1.1503	-0.44768	3.3154	-15.5709	784.2664	-54.3382	270.7322	65.276	826.9587	-0.0592	0.0182	-0.0073	-0.0462	0.0165	0.9585
37.0654	-0.40014	2.5812	0.4191	-0.95206	-0.54511	2.663	-10.2635	773.697	-55.4183	265.8806	63.7518	808.6196	-0.0592	0.0182	-0.0073	-0.0462	0.0165	0.9585
37.0771	-0.5929	1.7086	0.45503	-0.62065	-0.66299	1.6141	-4.647	761.2023	-56.6562	260.3846	62.336	788.5481	-0.0592	0.0182	-0.0073	-0.0462	0.0165	0.9585
37.0889	-0.77802	0.38049	0.47716	-0.11742	-0.76501	0.011622	1.119	748.4269	-57.9423	254.8756	60.9842	768.4629	-0.0592	0.0182	-0.0073	-0.0462	0.0165	0.9585
37.1007	-0.94971	-1.4333	0.49149	0.57281	-0.84687	-2.1618	6.796	736.7739	-59.2072	249.8943	59.7013	749.8044	-0.0592	0.0182	-0.0073	-0.0462	0.0165	0.9585
37.1125	-1.0186	-3.7014	0.46992	1.4346	-0.84735	-4.8913	12.2027	727.295	-60.3878	245.8415	58.4846	733.6344	-0.0592	0.0182	-0.0073	-0.0462	0.0165	0.9585
37.1243	-0.90866	-6.2222	0.41002	2.3914	-0.72971	-7.9187	17.1585	720.5436	-61.4967	242.9339	57.3936	720.4878	-0.0592	0.0182	-0.0073	-0.0462	0.0165	0.9585
